<?xml version="1.0" standalone="no"?>
<!DOCTYPE svg PUBLIC "-//W3C//DTD SVG 20010904//EN"
 "http://www.w3.org/TR/2001/REC-SVG-20010904/DTD/svg10.dtd">
<svg version="1.0" xmlns="http://www.w3.org/2000/svg"
 width="360.000000pt" height="360.000000pt" viewBox="0 0 360.000000 360.000000"
 preserveAspectRatio="xMidYMid meet">
<metadata>
Created by potrace 1.14, written by Peter Selinger 2001-2017
</metadata>
<g transform="translate(0.000000,360.000000) scale(0.100000,-0.100000)"
fill="#000000" stroke="none">
<path d="M2648 3005 c-2 -2 -49 -6 -105 -9 -55 -4 -112 -9 -125 -11 -12 -2
-68 -9 -123 -15 -82 -9 -249 -39 -315 -56 -8 -2 -35 -8 -59 -14 -45 -11 -101
-39 -101 -51 0 -11 39 -26 145 -55 27 -8 312 -97 325 -102 20 -7 21 -7 53 -16
32 -10 56 -55 87 -170 22 -78 24 -145 6 -158 -6 -4 -9 -22 -8 -40 1 -18 -3
-40 -9 -48 -9 -13 -12 -13 -22 4 -31 48 -62 76 -109 100 -85 43 -188 29 -188
-25 0 -20 -2 -20 -86 1 -35 8 -65 -3 -49 -18 6 -5 39 -17 74 -26 57 -14 80
-27 81 -47 0 -3 -26 -6 -57 -7 -32 0 -77 -8 -100 -16 -27 -9 -66 -13 -115 -10
-73 4 -73 4 -120 54 l-47 49 15 36 c18 43 14 50 -32 65 -26 9 -39 9 -47 1 -17
-17 -55 -114 -50 -126 2 -7 21 -17 41 -24 33 -10 39 -9 54 9 9 11 18 20 20 20
3 0 18 -17 35 -37 l30 -38 -131 2 c-72 1 -135 2 -139 2 -4 1 -5 65 -2 144 16
363 15 396 -23 446 -38 51 -64 18 -34 -43 8 -18 12 -44 9 -70 -6 -42 -13 -163
-21 -360 -3 -60 -8 -112 -13 -116 -4 -5 -39 -11 -78 -15 -38 -3 -83 -8 -100
-11 -16 -2 -46 -6 -65 -8 -95 -11 -170 -47 -198 -96 -9 -16 -22 -30 -28 -30
-32 0 -61 -84 -40 -118 3 -5 -1 -15 -8 -21 -12 -10 -33 -101 -29 -121 1 -3
-37 -5 -83 -5 -71 0 -87 -3 -95 -17 -8 -15 -13 -16 -30 -5 -16 10 -22 9 -29
-3 -25 -43 -38 -53 -69 -52 -24 0 -34 -5 -40 -21 -5 -12 -7 -25 -4 -29 10 -18
-19 -48 -47 -48 -38 0 -45 -14 -41 -77 3 -48 1 -54 -21 -62 -12 -5 -26 -7 -30
-4 -14 8 -20 -47 -9 -78 17 -48 13 -69 -13 -90 -28 -22 -27 -36 2 -100 18 -38
19 -46 6 -60 -21 -23 -17 -41 17 -88 17 -24 28 -49 25 -56 -5 -14 19 -54 46
-73 10 -7 15 -18 12 -24 -4 -6 -3 -8 3 -5 12 7 44 -28 35 -39 -4 -4 -1 -4 5 0
7 4 23 1 35 -6 23 -12 29 -14 49 -17 5 0 8 -5 4 -10 -3 -5 0 -13 6 -17 7 -4 9
-3 6 3 -7 10 99 11 109 0 4 -4 14 -1 22 6 8 6 17 11 19 10 1 -2 6 -3 11 -3 4
0 0 5 -8 11 -13 9 -12 10 2 5 10 -3 20 -1 24 5 4 7 12 5 23 -5 10 -9 22 -13
26 -9 5 5 4 1 -3 -8 -12 -16 -7 -29 10 -29 5 0 7 4 3 9 -3 5 2 16 10 24 17 17
20 31 5 22 -13 -8 0 28 14 37 6 4 16 2 23 -4 10 -8 13 -7 13 3 0 11 2 11 8 2
6 -10 13 -9 31 3 17 13 20 19 10 25 -10 6 -10 10 0 23 11 13 11 16 0 16 -8 0
-4 7 9 16 12 8 26 13 31 10 5 -4 16 -3 25 0 11 4 13 11 5 31 -31 82 55 121
193 87 41 -9 81 -14 101 -10 55 12 91 14 112 6 19 -7 19 -7 -3 -21 -12 -8 -22
-24 -22 -36 0 -13 -4 -23 -10 -23 -5 0 -10 5 -10 10 0 6 -5 10 -11 10 -8 0 -7
-5 2 -16 11 -14 10 -15 -7 -12 -10 1 -22 10 -27 18 -5 10 -6 7 -3 -8 3 -15 -1
-22 -11 -22 -9 0 -11 5 -7 13 6 9 4 9 -8 -1 -9 -7 -20 -12 -24 -11 -21 3 -35
-2 -29 -11 3 -5 1 -10 -5 -10 -6 0 -8 -5 -4 -11 4 -8 12 -3 21 12 8 13 12 16
9 7 -3 -12 -1 -15 10 -11 7 3 14 10 14 17 0 7 3 7 8 1 4 -5 14 -10 22 -10 8 0
14 -6 12 -13 -1 -8 2 -11 9 -6 8 4 9 3 5 -4 -5 -8 -1 -10 10 -5 12 4 14 8 5
11 -8 3 -7 8 6 18 17 13 17 14 -2 8 -19 -5 -19 -5 -1 6 14 10 20 10 27 -1 4
-7 5 -17 3 -21 -3 -4 -1 -8 5 -8 6 0 15 -10 22 -21 9 -17 8 -23 -2 -30 -8 -5
-10 -9 -6 -9 12 0 -26 -60 -38 -60 -5 0 -3 -5 5 -10 13 -9 13 -10 0 -10 -12
-1 -11 -3 3 -11 9 -6 15 -14 12 -20 -4 -5 1 -12 10 -15 10 -4 13 -13 10 -25
-4 -12 -2 -18 5 -17 7 2 14 -7 16 -20 2 -12 -1 -22 -7 -22 -5 0 -8 -4 -4 -9 3
-5 1 -12 -5 -16 -5 -3 -10 -11 -10 -16 0 -6 4 -8 8 -5 11 6 85 -68 76 -76 -3
-4 14 -19 38 -35 23 -15 46 -32 50 -38 4 -5 8 -6 8 -2 0 4 9 3 20 -3 24 -13
110 -30 107 -21 -4 12 8 12 36 2 41 -16 62 -14 82 9 10 11 23 16 29 13 17 -11
35 -12 42 -2 3 5 10 7 15 3 6 -3 7 4 3 20 -5 23 -4 25 12 19 16 -6 17 -4 6 9
-10 13 -10 17 3 22 10 4 14 2 9 -5 -4 -8 1 -9 16 -4 15 5 20 3 16 -3 -3 -6 -1
-14 5 -18 7 -4 9 -3 5 4 -3 5 0 13 6 15 10 4 10 6 0 6 -9 1 -10 6 -4 19 5 9 8
29 7 45 -1 15 2 27 7 27 5 0 8 8 6 18 -2 9 3 16 10 15 6 -2 18 -4 25 -5 6 -2
11 3 9 10 -1 8 2 11 9 7 7 -5 9 3 6 24 -3 18 -1 31 5 31 6 0 8 -7 5 -15 -4 -8
-2 -17 4 -20 5 -4 9 -3 8 2 -4 22 2 34 14 27 9 -6 9 -5 0 7 -13 16 -6 33 17
42 12 4 11 6 -3 6 -10 1 -15 6 -12 12 5 6 16 4 33 -7 25 -16 26 -16 13 -1 -8
10 -11 21 -7 24 4 4 10 3 14 -2 4 -6 14 -11 22 -13 10 -1 9 2 -4 13 -26 20 -7
19 22 -1 17 -12 22 -12 20 -2 -2 7 2 12 9 11 6 -2 15 7 18 19 6 17 9 18 17 7
8 -11 8 -10 4 4 -4 12 -2 17 6 14 7 -2 12 -11 10 -18 -2 -8 0 -11 4 -7 4 4 13
0 21 -10 12 -15 13 -14 2 7 -10 21 -9 23 5 18 8 -3 18 -1 22 5 5 7 2 8 -6 3
-8 -5 -11 -3 -8 6 3 8 12 13 22 11 16 -3 22 9 9 22 -4 4 -8 19 -9 34 -2 44 -4
48 -13 32 -6 -8 -8 -17 -6 -21 3 -3 -6 -5 -19 -4 -17 2 -26 -3 -29 -16 -3 -12
-1 -17 6 -13 7 3 -1 -5 -18 -18 -37 -29 -83 -31 -97 -5 -8 15 -7 18 3 12 8 -6
10 -4 4 5 -5 9 -4 11 3 6 18 -11 14 0 -5 20 -17 17 -17 18 2 11 20 -7 20 -7 1
8 -11 8 -25 15 -30 15 -6 0 -4 -5 4 -10 13 -9 13 -10 0 -10 -9 0 -11 -3 -5 -8
6 -4 11 -14 13 -22 1 -10 -2 -9 -13 4 -8 11 -15 16 -15 11 0 -5 8 -17 17 -28
17 -18 17 -19 -1 -29 -13 -7 -15 -13 -7 -17 6 -4 9 -15 5 -24 -3 -9 -11 -14
-17 -10 -6 3 -7 1 -3 -5 4 -7 -1 -10 -14 -7 -11 2 -18 0 -15 -6 4 -5 0 -9 -7
-9 -9 0 -9 -3 2 -10 11 -7 11 -10 2 -10 -7 0 -11 -4 -7 -9 6 -11 -13 -26 -22
-17 -3 3 -1 11 4 18 6 7 9 21 8 31 -2 9 1 18 6 18 5 1 13 2 18 3 28 4 38 71
12 86 -11 7 -12 9 -2 10 7 0 11 6 7 15 -3 8 -2 14 2 14 19 -3 26 2 13 10 -20
13 3 51 29 46 11 -2 20 0 20 6 0 5 -4 9 -9 9 -12 0 -8 44 5 47 5 1 7 -6 6 -15
-3 -13 1 -12 18 6 16 17 25 20 35 12 8 -7 16 -7 19 -2 3 6 -1 12 -9 16 -9 3
-12 12 -8 22 5 13 3 15 -8 9 -8 -5 -11 -5 -6 1 11 12 30 12 38 1 13 -18 35 9
35 43 0 28 4 35 19 35 31 1 43 13 38 39 -4 21 -1 25 23 28 21 2 28 8 26 21 -3
20 -8 18 84 22 l72 2 -1 -32 c0 -18 9 -45 21 -62 19 -26 20 -34 9 -45 -8 -7
-13 -21 -11 -30 1 -11 -5 -16 -17 -15 -10 1 -19 8 -20 17 0 13 -1 13 -7 0 -13
-29 -37 -21 -34 11 1 3 -13 6 -29 6 -19 0 -25 -3 -17 -9 7 -4 11 -8 8 -9 -3 0
-13 -2 -23 -4 -13 -2 -17 1 -13 11 6 15 -15 15 -26 0 -4 -6 -13 -4 -22 3 -12
10 -19 11 -29 2 -8 -6 -17 -8 -20 -4 -4 3 0 11 9 17 13 10 13 12 -5 12 -11 0
-17 -4 -15 -8 3 -4 -1 -8 -8 -8 -9 0 -9 -3 2 -10 12 -8 12 -10 1 -10 -8 0 -4
-8 10 -21 13 -11 18 -17 10 -13 -10 5 -12 3 -6 -6 6 -9 4 -11 -5 -5 -8 5 -11
4 -6 -3 4 -7 -1 -10 -14 -7 -13 3 -18 0 -14 -7 4 -6 3 -8 -4 -4 -6 3 -9 -1 -8
-10 2 -15 23 -34 39 -34 5 0 1 7 -7 16 -19 19 -21 28 -3 17 19 -12 38 -12 31
-1 -4 7 -2 8 5 4 6 -4 9 -11 7 -15 -3 -4 13 -7 35 -7 21 0 39 4 39 9 0 4 -4 6
-8 3 -4 -2 -14 0 -22 6 -12 8 -11 8 5 3 16 -5 17 -4 8 6 -10 10 -16 9 -28 -1
-8 -7 -18 -10 -21 -7 -12 11 37 29 50 18 18 -15 28 -1 13 17 -8 11 -8 14 0 9
6 -4 14 -3 18 3 3 5 12 10 18 10 7 0 4 -6 -5 -14 -10 -7 -15 -16 -11 -19 3 -4
12 1 20 11 12 16 13 16 7 -1 -3 -9 -1 -17 5 -17 6 0 10 6 9 12 -2 9 11 13 39
12 25 0 39 4 36 10 -4 5 3 3 15 -5 31 -22 63 -65 54 -73 -4 -4 -7 -11 -8 -14
-2 -18 -17 -42 -26 -42 -5 0 -7 4 -4 9 3 5 -2 15 -11 22 -14 12 -16 12 -8 0 6
-10 4 -12 -5 -6 -9 6 -11 4 -5 -6 5 -8 -5 1 -22 19 -30 31 -44 40 -42 24 4
-21 -3 -23 -23 -6 -14 13 -19 14 -14 4 4 -10 3 -9 -5 2 -12 15 -14 14 -31 -7
-10 -13 -18 -27 -18 -32 0 -4 5 -1 10 7 9 14 12 8 9 -16 0 -3 8 -12 18 -21 10
-8 12 -11 4 -7 -10 5 -12 3 -6 -6 5 -9 4 -11 -4 -6 -6 4 -11 4 -10 -1 1 -4 1
-15 0 -22 -1 -12 -4 -12 -13 -3 -17 17 -31 15 -24 -4 3 -8 2 -13 -2 -10 -4 2
-8 -4 -9 -14 -1 -10 5 -21 13 -24 8 -3 13 -2 10 3 -3 4 4 17 16 27 20 18 21
18 15 1 -4 -10 -3 -16 2 -12 5 3 12 -1 15 -7 3 -7 3 -2 0 11 -4 14 -2 21 4 17
5 -3 15 1 22 9 8 9 8 15 2 15 -6 0 -13 -6 -15 -12 -4 -10 -6 -10 -6 -1 -1 18
19 27 32 14 7 -7 5 -17 -9 -33 -11 -14 -13 -18 -3 -10 9 6 19 8 23 4 4 -4 7
-2 6 3 -1 6 -2 17 -1 25 1 12 5 11 17 -5 16 -19 16 -19 9 5 -7 23 -6 24 9 11
9 -8 16 -10 15 -5 -4 23 2 26 16 8 15 -18 15 -18 8 0 -5 14 -3 17 7 11 8 -5
11 -4 7 2 -4 6 0 14 9 17 12 5 14 1 9 -15 -5 -15 -4 -19 5 -14 6 4 10 16 7 26
-3 10 0 22 5 26 7 4 8 1 3 -7 -6 -10 -4 -12 7 -7 10 3 24 -5 38 -23 37 -49
185 -114 225 -100 11 4 31 2 45 -4 28 -13 70 -10 70 5 0 6 7 6 19 -1 24 -12
48 -4 56 20 4 13 15 17 38 16 29 -1 32 2 37 34 4 29 9 35 29 35 18 0 26 7 32
27 4 17 3 29 -4 32 -9 3 -9 5 0 5 7 1 10 8 7 16 -4 10 0 15 14 15 26 0 34 22
26 70 -6 36 -4 40 21 52 22 10 25 16 20 37 -12 43 -9 84 7 95 24 18 29 46 13
69 -20 28 -19 43 4 66 21 21 18 70 -5 84 -10 6 -10 14 2 42 19 46 18 69 -5 89
-16 15 -17 22 -8 52 9 30 8 37 -11 57 -12 13 -22 33 -22 46 0 12 -7 36 -16 53
-9 17 -18 42 -20 57 -10 59 -36 112 -64 126 -15 8 -30 20 -33 28 -3 8 -33 19
-69 26 -34 7 -73 14 -85 17 -45 9 -1 94 49 94 10 0 49 7 86 16 71 18 103 37
87 53 -8 8 -166 44 -241 55 -16 3 -19 11 -17 57 3 100 15 284 18 287 3 4 23 7
115 17 30 3 64 8 75 10 11 2 30 4 43 4 30 1 39 27 17 51 -10 11 -20 18 -23 16
-2 -3 -14 6 -26 18 -34 37 -517 190 -538 171z m232 -347 c19 -45 21 -63 16
-157 -3 -58 -5 -113 -6 -123 0 -11 -16 -20 -52 -29 -80 -18 -135 -45 -143 -68
-9 -28 4 -103 21 -122 8 -8 14 -21 14 -27 0 -15 -26 -16 -35 -2 -3 6 -15 10
-26 10 -19 0 -22 12 -21 82 1 34 -29 61 -71 64 -17 1 -38 3 -44 3 -7 1 -13 10
-13 21 0 11 -5 20 -11 20 -5 0 -8 3 -6 8 3 4 8 63 11 132 6 113 18 184 35 202
3 3 38 9 76 12 135 12 190 18 192 20 1 1 11 2 22 3 14 1 25 -11 41 -49z m-633
-308 c38 -12 112 -64 103 -73 -3 -3 -38 2 -79 11 -55 13 -76 22 -82 37 -12 32
-10 48 5 42 8 -3 31 -11 53 -17z m828 -26 c17 -3 37 -7 45 -9 8 -2 22 -4 30
-5 15 -1 -20 -18 -49 -24 -44 -8 -102 -31 -116 -46 -12 -14 -21 -39 -24 -72
-1 -5 -8 -8 -16 -8 -22 0 -19 47 5 67 15 13 20 30 20 67 l0 49 38 -7 c20 -3
51 -9 67 -12z m-203 -46 c3 -42 -10 -108 -21 -108 -117 -10 -125 -6 -134 62
-6 46 7 59 77 74 76 17 75 18 78 -28z m-542 -28 c28 -9 27 -11 -13 -14 -15 -2
-32 3 -38 11 -9 10 -7 13 7 12 11 -1 30 -5 44 -9z m71 -39 c-6 -10 -22 -22
-37 -25 -35 -9 -40 -2 -9 14 14 7 25 17 25 22 0 4 7 8 15 8 12 0 13 -4 6 -19z
m-74 -57 c-3 -3 -12 -4 -19 -1 -8 3 -5 6 6 6 11 1 17 -2 13 -5z m-1547 -625
c0 -5 -10 -9 -21 -9 -18 0 -19 2 -9 15 12 15 30 12 30 -6z m1630 -364 c5 3 11
1 15 -5 4 -6 12 -7 18 -4 7 4 8 3 4 -2 -5 -5 -13 -10 -18 -10 -5 -1 -12 -2
-15 -3 -4 0 0 -9 7 -18 13 -16 12 -17 -2 -5 -20 15 -39 12 -56 -8 -7 -8 -13
-11 -13 -6 0 5 -6 3 -14 -3 -10 -8 -16 -9 -21 -1 -4 6 -3 9 2 8 4 -1 18 4 29
12 l22 13 -22 20 c-11 10 -16 16 -9 13 6 -4 14 -2 18 4 4 7 13 7 26 0 11 -6
24 -8 29 -5z m93 -9 c4 -9 0 -13 -11 -12 -9 2 -18 8 -20 14 -5 17 25 15 31 -2z
m-33 -100 c0 5 7 1 14 -9 14 -18 15 -18 25 0 10 17 12 16 32 -10 16 -21 24
-25 34 -17 10 8 13 8 11 -2 -1 -7 -6 -15 -11 -16 -6 -2 -16 -8 -22 -14 -7 -6
-13 -7 -13 -4 0 4 -8 2 -18 -3 -13 -7 -23 -6 -31 2 -10 9 -17 7 -32 -12 -10
-13 -19 -19 -19 -13 0 5 7 15 15 22 12 10 13 16 4 26 -6 8 -8 14 -5 14 4 0 0
7 -8 16 -20 19 -11 40 10 23 8 -6 14 -8 14 -3z m-1123 -51 c0 -8 -4 -12 -9 -9
-5 3 -6 10 -3 15 9 13 12 11 12 -6z m979 -52 c-5 -15 -3 -14 10 2 12 14 15 15
11 4 -3 -9 0 -22 6 -29 8 -9 8 -11 1 -7 -6 4 -19 -2 -29 -13 -14 -16 -21 -17
-32 -8 -11 9 -20 4 -45 -21 -17 -18 -34 -28 -37 -23 -3 5 -15 8 -27 7 -18 -1
-23 13 -15 43 1 2 7 0 14 -5 25 -15 63 -10 94 14 18 14 32 28 32 31 -2 15 2
22 12 22 6 0 8 -8 5 -17z m88 -2 c3 -5 -2 -15 -12 -22 -15 -12 -16 -12 -5 2 7
9 10 19 6 22 -3 4 -4 7 0 7 3 0 8 -4 11 -9z"/>
<path d="M2357 1163 c-3 -5 3 -14 13 -20 13 -9 22 -9 35 1 16 12 16 13 -6 11
-13 -1 -27 2 -30 8 -4 5 -9 5 -12 0z"/>
<path d="M2454 1042 c11 -12 15 -22 10 -22 -5 0 2 -9 16 -19 19 -15 29 -17 45
-8 11 5 21 10 23 9 7 -5 4 6 -8 24 -11 19 -16 20 -27 8 -16 -15 -46 -8 -36 10
3 6 3 8 -2 4 -4 -4 -15 -2 -24 4 -10 8 -9 4 3 -10z m87 -29 c7 -10 10 -15 5
-11 -5 4 -16 3 -25 -1 -11 -6 -23 -4 -36 5 -19 14 -18 15 13 9 22 -4 31 -2 27
5 -10 17 2 11 16 -7z"/>
<path d="M2299 924 c-16 -20 7 -25 25 -5 14 15 14 18 1 18 -8 0 -20 -6 -26
-13z"/>
<path d="M2178 888 c12 -16 35 -18 48 -6 3 4 -2 5 -13 4 -10 -2 -25 2 -33 8
-13 9 -13 9 -2 -6z"/>
<path d="M2386 1198 c3 -5 10 -6 15 -3 13 9 11 12 -6 12 -8 0 -12 -4 -9 -9z"/>
<path d="M2310 1141 c0 -5 -11 -8 -25 -6 -14 1 -28 -2 -32 -8 -3 -6 -1 -7 5
-3 7 4 12 2 12 -5 0 -8 3 -9 13 0 8 6 16 9 19 6 3 -3 11 1 18 10 8 10 9 15 1
15 -6 0 -11 -4 -11 -9z"/>
<path d="M2493 1116 c1 -6 -10 -11 -25 -11 -14 0 -30 -4 -35 -9 -4 -5 -3 -6 3
-3 7 4 24 -3 40 -15 15 -13 25 -17 21 -11 -14 22 11 23 37 2 15 -12 30 -19 33
-15 4 3 14 -1 24 -10 11 -10 19 -12 24 -5 3 6 3 11 -1 11 -3 0 -1 6 5 14 9 11
8 17 -8 28 -12 8 -18 18 -13 23 4 5 1 5 -5 1 -8 -4 -13 -2 -13 6 0 10 -2 10
-9 -1 -7 -11 -9 -11 -13 0 -3 9 -6 8 -11 -5 -5 -11 -3 -15 5 -10 7 5 8 3 3 -6
-5 -8 -4 -11 3 -6 6 3 13 2 17 -3 3 -6 13 -7 23 -4 9 3 14 3 10 -1 -3 -4 -12
-8 -20 -10 -7 -1 -20 -6 -28 -10 -8 -5 -12 -6 -8 -1 11 12 -11 35 -27 29 -7
-3 -16 -1 -19 4 -3 5 2 9 11 8 9 0 18 4 20 10 2 5 -8 10 -21 10 -14 0 -24 -5
-23 -10z m118 -49 c-6 -8 -9 -17 -6 -21 3 -3 -1 -1 -7 4 -10 9 -10 13 2 20 21
13 24 12 11 -3z"/>
<path d="M2216 1081 c-10 -11 -24 -18 -30 -14 -6 4 -5 -1 2 -10 17 -20 8 -37
-17 -32 -11 2 -22 -2 -24 -9 -4 -9 3 -12 18 -10 24 2 35 -12 41 -53 1 -13 -2
-23 -7 -23 -5 0 -9 -4 -9 -8 0 -5 14 -8 31 -8 32 1 63 31 55 53 -3 7 -2 13 2
14 30 3 45 10 57 25 12 17 13 17 22 -2 6 -10 9 -29 8 -42 -1 -13 3 -26 9 -29
6 -3 8 -3 4 2 -13 14 12 46 31 40 14 -4 17 1 17 24 0 17 -4 29 -10 28 -6 -1
-10 8 -9 20 2 18 -2 22 -17 20 -11 -2 -23 -6 -26 -10 -4 -4 -13 1 -21 11 -10
13 -13 14 -11 2 4 -19 -32 -21 -50 -3 -7 7 -11 19 -7 25 3 7 0 5 -7 -4 -10
-14 -13 -15 -23 -2 -9 13 -13 13 -29 -5z m19 -1 c-3 -5 -1 -11 4 -11 6 -1 16
-2 22 -3 6 0 17 -10 25 -20 10 -14 14 -16 14 -5 0 11 2 12 9 1 4 -8 12 -14 16
-14 4 0 12 6 16 14 7 10 9 10 9 -2 0 -13 2 -13 9 -1 12 18 41 24 35 7 -3 -7 2
-19 11 -26 8 -7 15 -18 15 -24 0 -6 -5 -3 -11 7 -10 17 -29 15 -29 -4 0 -6 6
-7 13 -3 8 5 8 2 -2 -9 -14 -17 -26 -24 -17 -9 3 5 -2 19 -10 31 l-16 22 -24
-22 c-13 -12 -24 -19 -24 -15 0 4 -9 2 -20 -4 -12 -7 -17 -16 -13 -28 5 -14 3
-14 -9 2 -15 19 -39 15 -37 -7 0 -9 2 -9 6 1 2 6 9 12 14 12 6 0 8 -4 4 -9 -3
-5 -1 -12 5 -16 13 -8 3 -25 -13 -25 -7 0 -6 4 3 10 15 9 13 11 -12 14 -7 0
-14 8 -14 16 -1 8 -3 20 -4 25 -1 6 -2 13 -1 18 0 4 -4 7 -11 7 -6 0 -2 10 10
23 26 28 29 45 5 26 -15 -11 -14 -10 1 9 20 23 32 30 21 12z"/>
<path d="M2226 1041 c-36 -39 2 -72 50 -43 11 6 23 10 26 7 3 -3 11 1 17 9 11
13 9 15 -8 11 -12 -2 -24 3 -30 12 -12 23 -37 24 -55 4z m38 -2 c-2 -4 3 -12
12 -17 15 -8 14 -10 -2 -17 -30 -13 -51 -12 -51 1 0 7 7 10 16 6 13 -5 14 -3
4 10 -7 8 -11 17 -8 20 8 8 35 5 29 -3z"/>
<path d="M2249 1027 c6 -8 7 -18 3 -22 -4 -5 -1 -5 6 -1 10 6 10 11 1 22 -6 8
-14 14 -16 14 -3 0 0 -6 6 -13z"/>
<path d="M2367 1036 c-3 -8 -2 -18 3 -21 13 -8 20 9 11 24 -6 10 -10 9 -14 -3z"/>
<path d="M1280 1040 c-9 -6 -10 -10 -3 -10 6 0 15 5 18 10 8 12 4 12 -15 0z"/>
<path d="M1140 1009 c0 -5 -5 -7 -12 -3 -7 4 -8 3 -4 -4 4 -7 2 -12 -3 -12 -6
0 -11 6 -11 13 0 8 -3 7 -10 -3 -5 -8 -12 -11 -16 -7 -4 4 -16 0 -26 -9 -14
-13 -21 -14 -32 -5 -10 9 -16 9 -21 1 -5 -8 -11 -8 -20 0 -15 13 -39 4 -30
-10 3 -5 1 -12 -5 -15 -8 -5 -8 -11 -1 -19 21 -25 -49 -66 -76 -44 -13 11 -27
-7 -18 -23 4 -5 -1 -19 -12 -31 -10 -11 -17 -22 -15 -24 10 -17 -2 -24 -18 -9
-11 10 -18 20 -15 23 3 3 0 11 -7 19 -9 11 -14 10 -32 -6 -12 -11 -25 -19 -30
-18 -5 1 -15 -8 -24 -21 -14 -21 -13 -22 3 -16 14 6 16 4 10 -7 -5 -9 -1 -7
11 3 21 18 45 8 40 -16 -2 -6 -1 -8 1 -3 3 4 9 7 14 7 6 0 7 -5 3 -11 -4 -8 1
-7 15 1 19 10 22 9 19 -7 -2 -12 4 -19 20 -21 12 -2 22 0 22 5 0 4 11 9 25 9
22 2 24 0 13 -15 -7 -9 -8 -13 -4 -9 5 4 19 -4 31 -18 19 -22 23 -23 35 -10 7
9 17 16 23 16 5 0 2 -9 -9 -21 -10 -11 -14 -19 -9 -18 6 2 21 -3 33 -10 13 -7
26 -10 30 -7 3 3 0 6 -7 6 -9 0 -9 5 -1 20 6 11 8 21 5 21 -3 1 -8 2 -12 3 -5
1 -23 10 -40 19 -18 10 -36 18 -40 20 -4 1 -7 9 -5 17 3 13 2 13 -7 0 -7 -10
-11 -11 -11 -3 0 7 -3 12 -7 12 -19 -3 -36 2 -30 8 4 3 1 13 -6 21 -10 13 -9
14 2 7 10 -6 12 -4 6 5 -6 9 -4 11 5 5 8 -5 11 -4 7 2 -3 5 0 10 8 10 8 0 12
-4 9 -9 -3 -4 2 -5 10 -2 13 5 12 9 -5 23 -20 16 -20 17 -3 31 14 12 16 12 10
1 -6 -9 -5 -12 5 -9 8 3 13 11 11 18 -2 11 0 11 13 0 14 -12 18 -11 26 1 7 12
9 12 9 0 0 -8 3 -11 7 -8 3 4 13 1 22 -6 14 -11 15 -10 1 7 -12 16 -12 18 -1
11 9 -5 12 -4 8 2 -3 5 7 9 23 9 15 0 27 -4 26 -10 -2 -6 -1 -8 1 -3 9 16 22
6 18 -14 -4 -19 -3 -20 13 -7 25 22 42 30 42 21 0 -5 -10 -13 -22 -18 -23 -11
-37 -35 -19 -35 6 0 10 5 9 12 -2 7 2 12 9 13 6 0 15 3 18 7 4 4 15 3 25 -2
21 -11 30 -4 23 18 -4 14 -3 15 5 2 8 -10 8 -18 0 -27 -8 -10 -7 -12 6 -7 18
7 22 -11 6 -21 -8 -5 -7 -11 1 -21 7 -9 8 -14 1 -14 -6 0 -12 3 -15 8 -2 4 -3
2 -1 -4 1 -6 -3 -18 -9 -25 -8 -9 -6 -9 7 1 10 8 32 15 49 15 18 0 32 7 35 15
3 13 2 13 -7 0 -10 -13 -11 -13 -11 0 0 13 -2 13 -11 0 -9 -13 -10 -12 -5 3 4
12 2 16 -7 12 -6 -4 -4 0 6 8 10 9 14 18 8 21 -5 3 -11 3 -14 -1 -2 -5 -2 -2
0 5 1 7 -1 11 -6 8 -4 -3 -13 6 -19 19 -7 15 -8 25 -2 25 6 0 10 -7 10 -15 0
-8 5 -15 10 -15 11 0 13 13 3 24 -11 10 -11 46 0 39 6 -4 7 -1 2 8 -5 8 -5 11
0 7 4 -4 14 -3 22 4 11 8 12 7 7 -6 -3 -9 -10 -16 -15 -16 -5 0 -9 -4 -9 -8 0
-5 7 -9 15 -9 8 0 16 4 16 9 1 4 3 13 4 18 1 6 3 15 4 21 0 5 13 -3 27 -18 15
-15 20 -19 13 -9 -10 14 -10 18 -1 12 10 -6 10 -2 0 19 -8 18 -14 22 -20 13
-4 -7 -8 -9 -8 -5 0 4 -9 3 -19 -2 -14 -8 -22 -7 -30 3 -6 7 -8 16 -4 20 4 4
1 11 -7 16 -24 15 -36 11 -14 -5 17 -13 17 -14 2 -15 -9 0 -22 8 -27 18 -8 14
-11 14 -12 2 -1 -8 -1 -19 0 -23 1 -5 -4 -7 -11 -4 -7 2 -12 11 -10 21 2 9 0
16 -3 16 -3 0 -5 -5 -5 -11z m72 -34 c3 3 11 -2 19 -12 8 -9 9 -14 3 -10 -13
8 -37 -16 -27 -27 4 -3 -3 -14 -16 -22 -12 -9 -20 -22 -17 -30 3 -8 0 -11 -9
-8 -7 3 -16 12 -19 21 -6 13 -9 13 -32 -2 -15 -9 -24 -12 -20 -7 14 23 -62 38
-91 19 -7 -5 -17 -6 -22 -2 -5 3 -12 1 -16 -5 -4 -6 -11 -8 -16 -4 -6 4 -4 13
6 24 11 12 13 20 5 25 -8 5 -8 11 -1 19 6 7 8 16 4 20 -4 4 0 4 10 0 9 -3 17
-10 17 -15 0 -5 5 -9 11 -9 5 0 8 4 4 9 -3 5 -1 12 4 15 5 4 12 2 15 -3 4 -5
2 -12 -4 -16 -6 -4 -8 -11 -5 -16 4 -5 18 5 32 22 18 21 29 27 36 20 13 -13
30 -15 23 -3 -6 10 25 9 42 -2 16 -10 34 2 25 17 -3 7 3 4 14 -6 11 -9 22 -15
25 -12z m-321 -100 c11 6 12 5 2 -5 -10 -11 -10 -17 0 -29 7 -9 8 -12 1 -8 -6
4 -19 -2 -28 -12 -12 -13 -14 -21 -6 -26 5 -3 8 -10 5 -15 -3 -5 3 -14 12 -20
16 -10 16 -11 1 -6 -10 3 -20 1 -23 -4 -10 -17 -33 -11 -31 8 1 11 -5 16 -16
14 -10 -2 -18 2 -18 8 0 6 -4 9 -9 6 -5 -3 -14 1 -21 9 -10 12 -16 13 -26 4
-8 -6 -14 -9 -14 -5 0 3 0 8 0 11 0 3 2 4 4 3 3 -2 16 8 30 21 14 14 26 21 26
18 0 -18 3 -24 22 -44 23 -25 48 -21 43 7 -2 10 3 24 11 31 9 7 12 20 9 33 -5
15 -4 17 3 7 6 -8 15 -10 23 -6z m326 -60 c0 -8 -4 -12 -9 -9 -5 3 -6 10 -3
15 9 13 12 11 12 -6z m-274 -88 c4 3 7 1 7 -6 0 -7 5 -9 13 -5 8 5 7 2 -2 -9
-8 -10 -14 -16 -15 -15 -1 2 -10 14 -21 28 -12 15 -14 20 -4 12 9 -6 19 -9 22
-5z m70 -44 c-6 -15 -19 -17 -27 -4 -7 11 0 18 18 18 8 0 12 -6 9 -14z"/>
<path d="M1056 961 c-11 -12 -15 -21 -10 -21 5 0 2 -4 -5 -9 -10 -7 -24 -3
-42 10 -16 11 -30 15 -33 10 -4 -5 -1 -13 4 -16 8 -5 5 -14 -7 -28 -15 -18
-15 -20 -1 -8 9 7 22 10 27 7 5 -4 12 -2 15 3 8 12 72 7 88 -7 9 -7 19 -7 28
-2 9 5 19 5 27 -2 10 -8 19 -6 33 7 11 10 18 20 15 23 -3 3 3 14 12 25 10 11
13 17 6 14 -6 -4 -15 -3 -18 3 -5 8 -11 7 -21 -1 -10 -8 -18 -8 -27 0 -10 8
-19 7 -32 -3 -17 -12 -21 -12 -30 1 -9 12 -13 11 -29 -6z m20 0 c-10 -16 19
-19 39 -5 13 10 22 11 32 3 9 -8 17 -8 27 0 9 8 16 8 20 2 4 -5 2 -12 -4 -16
-6 -4 -8 -10 -5 -15 9 -14 -24 -34 -38 -22 -7 6 -18 7 -27 2 -8 -5 -22 -3 -35
6 -12 8 -24 11 -28 8 -8 -8 -3 18 6 34 5 6 10 12 13 12 3 0 3 -4 0 -9z m-73
-44 c-3 -4 -6 -7 -7 -5 -1 2 -8 12 -16 22 -14 18 -14 18 7 6 12 -8 19 -18 16
-23z"/>
<path d="M1114 946 c-13 -10 -24 -11 -39 -4 -14 7 -13 4 5 -11 17 -13 29 -17
41 -11 10 6 20 5 27 -2 9 -9 15 -9 24 0 7 7 8 12 4 12 -5 0 -2 8 5 18 13 15
12 16 -3 3 -13 -10 -21 -11 -31 -2 -10 8 -19 7 -33 -3z m37 -13 c11 -15 11
-16 -1 -6 -9 9 -19 9 -34 2 -20 -10 -20 -10 -2 5 24 19 21 20 37 -1z"/>
<path d="M859 833 c-13 -16 -12 -17 4 -4 9 7 17 15 17 17 0 8 -8 3 -21 -13z"/>
<path d="M761 826 c-9 -10 -8 -16 4 -26 8 -7 15 -9 15 -5 0 4 8 1 18 -6 9 -7
7 -2 -6 12 -12 14 -19 29 -15 32 3 4 4 7 1 7 -3 0 -11 -6 -17 -14z"/>
<path d="M840 780 c-11 -7 -11 -10 -2 -10 8 0 10 -5 6 -12 -4 -7 -3 -9 1 -5 7
6 17 37 12 37 -1 0 -9 -5 -17 -10z"/>
<path d="M1035 1000 c-3 -5 -1 -10 4 -10 6 0 11 5 11 10 0 6 -2 10 -4 10 -3 0
-8 -4 -11 -10z"/>
<path d="M2645 1001 c-3 -6 5 -15 17 -21 21 -10 21 -10 6 3 -10 8 -15 17 -11
20 3 4 4 7 0 7 -3 0 -8 -4 -12 -9z"/>
<path d="M1379 993 c-1 -5 -1 -11 0 -15 0 -4 -9 -13 -20 -19 -17 -8 -23 -8
-30 2 -4 7 -5 17 -3 21 3 4 0 8 -6 8 -8 0 -9 -7 -5 -17 11 -29 16 -63 8 -63
-4 0 -18 10 -32 23 -14 12 -23 18 -19 13 13 -16 -11 -45 -33 -41 -17 3 -19 2
-9 -10 6 -8 9 -18 6 -23 -3 -6 1 -15 9 -22 7 -6 11 -19 8 -27 -4 -10 -2 -14 5
-9 15 9 27 -13 13 -27 -6 -6 -25 -12 -42 -13 -16 -1 -36 -8 -44 -14 -8 -7 -15
-7 -19 -1 -4 5 -2 12 4 16 6 4 8 11 4 16 -3 6 2 20 13 31 10 12 12 18 5 14 -7
-4 -19 0 -28 9 -11 11 -20 13 -28 5 -7 -5 -16 -6 -20 -2 -4 4 -7 3 -6 -3 7
-32 -2 -39 -20 -16 -11 12 -17 28 -13 34 3 6 1 7 -5 3 -6 -3 -15 1 -20 10 -5
9 -15 14 -21 10 -6 -4 -9 -11 -6 -16 3 -5 1 -11 -4 -14 -5 -4 -12 -3 -15 2 -6
10 -57 9 -74 -2 -7 -4 -18 -4 -24 -1 -7 4 -4 -1 6 -9 21 -17 28 -63 10 -63 -7
0 -10 6 -7 13 3 7 -2 11 -12 10 -8 -1 -15 -5 -15 -9 0 -4 0 -11 0 -16 0 -4 10
-8 23 -7 16 1 22 -4 21 -17 -1 -10 0 -16 3 -13 3 3 18 -1 34 -10 16 -8 30 -13
32 -12 10 8 35 -25 30 -38 -4 -10 -1 -14 10 -12 8 2 25 -8 36 -21 12 -13 21
-21 21 -17 0 3 11 -1 25 -10 14 -9 25 -14 25 -11 0 2 -18 17 -41 31 -22 15
-39 30 -36 32 3 3 25 -7 49 -22 23 -16 47 -27 52 -26 4 2 20 -5 35 -14 25 -17
25 -17 12 0 -13 16 -13 17 5 14 10 -1 25 -11 32 -20 7 -10 19 -18 25 -17 9 0
9 2 0 6 -7 2 -13 10 -13 16 0 5 3 7 7 4 3 -4 13 -1 21 6 13 10 14 8 8 -11 -5
-14 -3 -22 4 -22 6 0 9 4 6 9 -7 10 22 36 31 28 3 -4 15 -2 26 4 15 9 18 8 12
-2 -5 -8 -4 -10 3 -5 19 12 14 2 -10 -18 -16 -14 -20 -15 -15 -3 4 10 0 14
-11 13 -17 -3 -27 -46 -10 -46 5 0 7 10 3 23 -5 20 -5 20 9 -3 9 -14 15 -20
16 -13 0 6 8 10 18 8 9 -2 19 -4 22 -4 3 -1 -2 -6 -10 -12 -11 -8 -9 -9 10 -3
23 6 24 6 10 -12 -14 -18 -14 -18 8 0 17 14 22 16 22 5 0 -11 2 -11 10 1 9 13
10 13 11 0 1 -8 1 -19 0 -24 -1 -5 4 -4 12 2 8 7 23 9 33 6 12 -5 9 1 -9 15
-15 13 -25 26 -22 30 4 8 -54 70 -67 71 -5 0 -13 0 -20 0 -7 0 -5 7 5 18 8 9
16 20 16 25 1 4 1 8 2 10 5 18 6 36 1 36 -26 -4 -34 2 -23 15 9 10 8 16 -4 26
-8 7 -12 17 -8 23 3 6 1 7 -5 3 -11 -6 -16 6 -13 27 0 4 -4 7 -10 7 -6 0 -8
-8 -5 -17 5 -15 3 -14 -10 2 -8 11 -20 19 -26 17 -7 -2 -7 3 1 12 7 8 10 20 6
26 -4 6 -1 9 6 8 8 -2 13 7 14 21 0 13 7 26 15 28 13 4 13 3 0 -6 -8 -6 -11
-11 -6 -11 5 0 19 8 30 18 20 16 20 16 6 -2 -9 -12 -10 -17 -3 -12 9 5 11 2 7
-8 -4 -10 -1 -16 7 -16 7 0 9 3 6 7 -4 3 -2 12 4 19 8 10 5 17 -10 30 -11 10
-18 21 -15 26 3 4 3 8 0 8 -3 0 -7 -3 -7 -7z m-73 -88 c13 -20 14 -28 4 -40
-7 -8 -10 -15 -6 -15 12 0 15 -2 55 -38 30 -26 38 -39 30 -48 -7 -9 -4 -16 11
-24 17 -9 19 -14 9 -26 -6 -8 -8 -14 -4 -14 5 0 1 -8 -8 -18 -15 -17 -15 -19
3 -35 11 -9 20 -12 20 -7 0 6 13 -2 30 -16 16 -15 27 -30 25 -35 -3 -4 -1 -10
5 -14 5 -3 10 -12 10 -18 0 -7 -5 -4 -10 5 -6 10 -19 15 -30 13 -11 -2 -20 1
-20 6 0 6 -4 8 -9 4 -5 -3 -12 -1 -16 5 -4 6 -12 7 -18 3 -7 -3 -4 3 6 14 15
17 16 23 5 29 -19 12 -78 12 -78 0 0 -6 -4 -5 -9 2 -7 11 -9 11 -14 -1 -7 -19
-35 -16 -48 4 -7 11 -9 11 -9 1 0 -10 -4 -10 -16 2 -19 20 -28 20 -44 1 -10
-12 -16 -13 -26 -4 -8 6 -11 16 -7 22 4 6 0 8 -11 4 -11 -5 -15 -3 -10 5 5 8
2 9 -9 5 -9 -3 -19 -2 -22 4 -4 5 -18 7 -32 5 -14 -3 -23 -2 -19 1 9 10 -25
43 -37 36 -6 -3 -7 -1 -3 5 6 10 -6 17 -18 10 -2 -2 -13 5 -24 15 -13 12 -19
28 -17 48 1 16 -1 32 -6 35 -5 3 -7 10 -3 15 4 6 14 3 27 -8 18 -16 20 -16 14
-1 -7 19 20 19 32 -1 6 -9 10 -8 16 6 5 10 7 22 6 26 -1 5 3 6 9 2 8 -5 7 -12
-2 -23 -11 -14 -10 -15 6 -9 13 5 24 0 37 -17 12 -15 26 -23 34 -19 8 3 13 9
10 13 -3 4 2 13 10 20 14 12 16 10 14 -6 0 -4 5 -11 13 -15 10 -7 10 -9 -1 -9
-12 0 -12 -3 -3 -12 8 -8 8 -15 1 -24 -8 -10 -7 -18 4 -28 13 -14 16 -14 21 0
4 9 13 14 21 10 8 -3 15 0 16 7 0 9 2 9 6 0 2 -7 9 -13 14 -13 6 0 7 5 3 12
-4 6 -3 8 3 5 16 -10 49 31 36 44 -6 6 -9 18 -6 27 4 10 2 13 -5 8 -6 -3 -14
-1 -18 6 -10 15 -13 47 -5 46 14 -3 40 15 35 23 -13 21 7 7 22 -16z m-96 -265
c0 -5 -4 -10 -10 -10 -5 0 -10 5 -10 10 0 6 5 10 10 10 6 0 10 -4 10 -10z"/>
<path d="M1277 898 c-21 -17 -26 -42 -7 -43 8 0 15 -7 15 -15 0 -8 4 -21 9
-28 8 -14 -47 -85 -58 -74 -16 15 -45 11 -51 -8 -6 -18 -8 -18 -30 8 -20 23
-21 28 -9 35 10 6 12 13 6 20 -5 7 -8 20 -6 30 1 11 -1 16 -4 12 -4 -4 -8 -11
-8 -16 -1 -5 -2 -13 -3 -17 -2 -16 -31 -8 -52 14 -17 18 -26 21 -45 14 -18 -7
-26 -5 -32 6 -8 14 -10 14 -16 -1 -6 -17 -8 -17 -28 1 -13 12 -18 13 -12 4 5
-8 9 -26 9 -40 0 -30 13 -52 25 -45 5 3 27 -11 50 -31 22 -20 40 -31 40 -24 0
9 6 8 18 -3 10 -10 21 -14 24 -11 8 7 48 -14 47 -24 -3 -21 3 -23 21 -7 13 11
25 15 37 10 10 -5 22 -9 26 -9 4 -1 12 -8 17 -16 9 -13 10 -13 10 0 0 12 2 12
9 2 7 -11 9 -11 14 1 3 9 18 13 46 12 22 -1 38 1 36 5 -3 4 2 13 10 20 8 7 13
16 10 20 -3 5 0 12 6 15 6 5 3 13 -11 22 -15 11 -18 18 -10 28 8 9 2 19 -24
39 -19 14 -39 26 -44 26 -16 0 -21 27 -9 40 9 10 9 14 -1 17 -6 3 -10 9 -6 14
7 13 1 11 -19 -3z m11 -23 c-2 -5 -8 -10 -15 -11 -6 -1 -9 4 -6 12 6 16 27 15
21 -1z m-261 -61 c7 -1 16 2 19 8 4 5 18 -2 34 -17 16 -15 31 -27 34 -26 3 1
5 -1 4 -3 -2 -3 7 -15 20 -28 12 -14 20 -27 17 -30 -3 -3 1 -8 9 -11 10 -4 20
1 26 13 11 20 37 21 49 1 6 -10 10 -9 15 4 3 9 10 14 15 10 5 -3 12 -1 16 5 3
5 1 10 -6 10 -7 0 -2 11 11 25 20 21 21 27 9 42 -12 16 -12 17 2 6 9 -7 18
-11 21 -8 3 3 11 -1 18 -10 9 -11 9 -15 1 -15 -7 0 -9 -5 -6 -10 5 -8 11 -7
21 1 13 11 17 8 12 -8 -2 -5 -6 -7 -10 -6 -13 5 -9 -7 11 -28 32 -35 11 -77
-36 -74 -16 1 -32 -1 -38 -5 -9 -6 -28 -6 -40 0 -3 1 -10 3 -15 4 -6 0 -14 7
-19 14 -6 10 -14 7 -36 -10 -16 -12 -26 -18 -22 -12 3 6 -5 20 -18 32 -15 13
-27 17 -31 11 -9 -15 -36 11 -29 30 3 11 0 10 -10 -3 -10 -13 -15 -15 -15 -6
0 7 -3 10 -7 7 -3 -4 -16 2 -29 14 -12 11 -30 22 -40 23 -12 2 -19 12 -19 29
-1 14 2 24 6 21 4 -2 10 0 14 6 4 6 12 7 18 3 7 -4 18 -8 24 -9z"/>
<path d="M983 808 c-11 -18 -13 -39 -3 -33 5 3 21 -6 37 -19 39 -33 38 -33 56
-18 9 8 21 11 28 7 8 -6 8 -9 -1 -15 -7 -4 -9 -13 -5 -19 5 -8 11 -9 19 -2 9
8 19 4 36 -14 21 -22 24 -23 45 -9 21 13 24 13 32 0 4 -8 11 -15 16 -15 4 -1
8 -1 10 -2 24 -7 39 -5 44 8 5 12 7 12 14 1 7 -10 9 -10 9 2 0 12 2 12 9 2 7
-11 9 -10 14 3 5 11 3 14 -6 9 -6 -4 -9 -4 -5 1 4 4 2 17 -4 29 -9 18 -7 17
13 -4 13 -14 21 -26 17 -28 -5 -2 -8 -8 -8 -14 0 -7 5 -6 14 1 19 16 15 31
-16 71 -15 19 -24 40 -20 49 3 9 -6 3 -19 -13 -15 -20 -19 -31 -11 -34 15 -5
16 -23 1 -19 -6 1 -14 -5 -16 -13 -4 -13 -3 -13 6 0 8 12 10 10 8 -9 l-1 -23
-17 21 c-15 18 -18 18 -23 5 -8 -20 -8 -24 2 -23 19 3 32 -2 32 -12 0 -8 -4
-8 -12 -1 -13 10 -19 12 -38 12 -5 0 -9 3 -9 8 5 28 -2 35 -16 16 -15 -19 -15
-19 -9 1 3 12 -1 9 -11 -8 -14 -24 -18 -26 -31 -13 -8 9 -15 19 -15 23 0 4 -9
17 -20 29 -10 11 -17 24 -14 27 3 4 2 5 -2 2 -4 -3 -19 6 -34 21 -28 27 -52
17 -28 -12 9 -11 14 -12 19 -3 6 8 9 8 14 0 4 -6 4 -11 -1 -12 -4 0 -16 -2
-26 -4 -10 -2 -14 1 -11 7 4 7 2 8 -5 4 -6 -4 -11 -4 -10 1 5 28 -2 36 -15 17
-12 -16 -17 -17 -28 -6 -11 11 -10 12 5 7 9 -4 17 -3 17 3 0 17 -18 23 -27 10z
m43 -27 c-8 -12 16 -29 37 -26 9 2 15 0 12 -5 -7 -11 -30 -7 -49 9 -14 12 -14
31 0 31 3 0 3 -4 0 -9z m334 -62 c0 -4 -13 5 -29 20 -16 14 -27 30 -24 35 5 8
52 -41 53 -55z m-239 24 c13 -16 20 -25 15 -21 -5 4 -16 2 -25 -4 -13 -10 -14
-10 -4 2 10 11 9 17 -4 32 -9 10 -14 18 -11 18 2 0 15 -12 29 -27z m203 -45
c-9 -14 -23 2 -17 18 4 12 8 13 14 3 4 -7 5 -17 3 -21z"/>
<path d="M1410 615 c-7 -8 -11 -15 -9 -16 23 -4 36 -7 46 -10 20 -7 18 13 -3
28 -18 12 -23 11 -34 -2z m50 -21 c0 -2 -8 0 -19 5 -10 6 -22 7 -26 3 -5 -4
-5 -1 -1 6 5 9 12 9 27 2 10 -6 19 -13 19 -16z"/>
<path d="M2139 937 c6 -8 7 -18 3 -22 -4 -5 -1 -5 6 -1 10 6 10 11 1 22 -6 8
-14 14 -16 14 -3 0 0 -6 6 -13z"/>
<path d="M1359 919 c-10 -6 -10 -9 -1 -9 6 0 12 -5 12 -11 0 -5 -4 -8 -9 -4
-6 3 -15 -3 -21 -14 -15 -30 5 -35 34 -9 22 20 24 26 13 40 -9 11 -18 14 -28
7z m31 -23 c0 -2 -6 -9 -14 -15 -11 -9 -16 -9 -22 0 -4 7 -3 9 4 5 6 -3 13 -2
17 4 6 10 15 14 15 6z"/>
<path d="M668 812 c4 -11 1 -13 -8 -7 -9 5 -11 4 -6 -4 6 -9 11 -9 22 0 18 15
18 26 0 26 -8 0 -12 -6 -8 -15z"/>
<path d="M736 763 c-6 -14 -5 -15 5 -6 7 7 10 15 7 18 -3 3 -9 -2 -12 -12z"/>
<path d="M870 706 c0 -2 9 -6 20 -9 11 -3 18 -1 14 4 -5 9 -34 13 -34 5z"/>
<path d="M2026 675 c1 -14 -3 -25 -9 -25 -7 0 -5 -5 3 -10 12 -8 12 -10 1 -10
-8 0 -12 -3 -8 -6 3 -3 16 1 29 10 12 9 17 16 10 16 -7 0 -10 5 -7 10 4 6 11
7 17 4 7 -4 8 -2 4 4 -4 7 -15 16 -25 22 -15 8 -18 5 -15 -15z"/>
<path d="M1051 644 c0 -11 3 -14 6 -6 3 7 2 16 -1 19 -3 4 -6 -2 -5 -13z"/>
<path d="M2010 602 c0 -5 7 -9 15 -9 8 0 12 4 9 9 -3 4 -9 8 -15 8 -5 0 -9 -4
-9 -8z"/>
</g>
</svg>
